<svg xmlns="http://www.w3.org/2000/svg" viewBox="0 0 64 64" role="img" aria-label="Heloowird">
  <circle cx="32" cy="32" r="32" fill="#101827"/>
  <g transform="translate(32 0) scale(1.22 1) translate(-32 -5.6)">
    <path d="M20.62 33.78c0-2.13 1.33-3.02 3.02-3.02s3.02.89 3.02 3.02v25.06c0 2.13-1.33 3.02-3.02 3.02s-3.02-.89-3.02-3.02z" fill="#f8fafc"/>
    <path d="M37.33 33.78c0-2.13 1.33-3.02 3.02-3.02s3.02.89 3.02 3.02v25.06c0 2.13-1.33 3.02-3.02 3.02s-3.02-.89-3.02-3.02z" fill="#f8fafc"/>
    <path d="M25.07 43.56h13.87c1.78 0 2.49 1.24 2.49 2.49s-.71 2.49-2.49 2.49H25.07c-1.78 0-2.49-1.24-2.49-2.49s.71-2.49 2.49-2.49z" fill="#f8fafc"/>
    <path d="M20.62 25.24 26.31 19.20 32 25.24 37.69 19.20 43.38 25.24" fill="none" stroke="#e2e8f0" stroke-width="3.91" stroke-linecap="round" stroke-linejoin="round"/>
  </g>
</svg>
